<svg xmlns="http://www.w3.org/2000/svg" xmlns:xlink="http://www.w3.org/1999/xlink" version="1.1" x="0px" y="0px" viewBox="0 0 100 100" enable-background="new 0 0 100 100" xml:space="preserve"><g display="none"><rect x="-192" display="inline" width="185" height="99"></rect><rect y="-36" display="inline" width="100" height="30"></rect><text transform="matrix(1 0 0 1 66 -19.5)" display="inline" fill="#000000" font-family="'Helvetica'" font-size="2.4">http://thenounproject.com</text><text transform="matrix(1 0 0 1 7.166 -24.5)" display="inline"><tspan x="0" y="0" fill="#000000" font-family="'Helvetica-Bold'" font-size="6.1578">The Noun Project</tspan><tspan x="1.12" y="4.8" fill="#000000" font-family="'Helvetica-Bold'" font-size="4">Icon Template</tspan></text><text transform="matrix(1 0 0 1 -178.5 10.5)" display="inline" fill="#000000" font-family="'Helvetica-Bold'" font-size="6.1578">Reminders</text><line display="inline" fill="#000000" stroke="#FFFFFF" stroke-miterlimit="10" x1="8" y1="-14.5" x2="18" y2="-14.5"></line><line display="inline" fill="#000000" stroke="#FFFFFF" stroke-miterlimit="10" x1="-179" y1="16.5" x2="-162" y2="16.5"></line><g display="inline"><g><g><rect x="-170.802" y="31.318" fill="#000000" width="8.721" height="8.642"></rect><path fill="#000000" d="M-164.455,42.312h4.747v-4.703h-4.747V42.312z M-159.266,42.749h-5.63V37.17h5.63V42.749      L-159.266,42.749z M-166.221,44.062h8.279v-8.203h-8.279V44.062L-166.221,44.062z M-157.5,44.5h-9.163v-9.079h9.163V44.5      L-157.5,44.5z"></path><polygon fill="#000000" points="-166.149,44.133 -166.292,43.991 -158.013,35.787 -157.871,35.929     "></polygon></g></g></g><rect x="-179" y="58" display="inline" fill="none" width="35" height="32.5"></rect><text transform="matrix(1 0 0 1 -179 60.1572)" display="inline"><tspan x="0" y="0" fill="#000000" font-family="'Helvetica-Bold'" font-size="3">Strokes</tspan><tspan x="0" y="5" fill="#000000" font-family="'Helvetica'" font-size="2.4">Try to keep strokes at 4px</tspan><tspan x="0" y="10" fill="#000000" font-family="'Helvetica'" font-size="2.4">Minimum stroke weight is 2px</tspan><tspan x="0" y="14.5" fill="#000000" font-family="'Helvetica'" font-size="2.4">For thicker strokes use even </tspan><tspan x="0" y="17.5" fill="#000000" font-family="'Helvetica'" font-size="2.4">numbers: 6px, 8px etc.</tspan><tspan x="0" y="22" fill="#000000" font-family="'Helvetica-Bold'" font-size="2.4">Remember to expand strokes </tspan><tspan x="0" y="25" fill="#000000" font-family="'Helvetica-Bold'" font-size="2.4">before saving as an SVG </tspan></text><rect x="-136.5" y="58" display="inline" fill="none" width="35" height="32.5"></rect><text transform="matrix(1 0 0 1 -136.5 60.1572)" display="inline"><tspan x="0" y="0" fill="#000000" font-family="'Helvetica-Bold'" font-size="3">Size</tspan><tspan x="0" y="5" fill="#000000" font-family="'Helvetica'" font-size="2.4">Cannot be wider or taller than </tspan><tspan x="0" y="8.5" fill="#000000" font-family="'Helvetica'" font-size="2.4">100px (artboard size)</tspan><tspan x="0" y="13.5" fill="#000000" font-family="'Helvetica'" font-size="2.4">Scale your icon to fill as much of </tspan><tspan x="0" y="16.5" fill="#000000" font-family="'Helvetica'" font-size="2.4">the artboard as possible</tspan></text><rect x="-94" y="58" display="inline" fill="none" width="35" height="32.5"></rect><text transform="matrix(1 0 0 1 -94 60.1572)" display="inline"><tspan x="0" y="0" fill="#000000" font-family="'Helvetica-Bold'" font-size="3">Ungroup</tspan><tspan x="0" y="5" fill="#000000" font-family="'Helvetica'" font-size="2.4">If your design has more than one </tspan><tspan x="0" y="8" fill="#000000" font-family="'Helvetica'" font-size="2.4">shape, make sure to ungroup</tspan></text><rect x="-50" y="58" display="inline" fill="none" width="35" height="32.5"></rect><text transform="matrix(1 0 0 1 -50 60.1572)" display="inline"><tspan x="0" y="0" fill="#000000" font-family="'Helvetica-Bold'" font-size="3">Save as</tspan><tspan x="0" y="5" fill="#000000" font-family="'Helvetica'" font-size="2.4">Save as .SVG and make sure </tspan><tspan x="0" y="8" fill="#000000" font-family="'Helvetica'" font-size="2.4">“Use Artboards” is checked</tspan></text><text transform="matrix(1.0074 0 0 1 -125.542 30.5933)" display="inline" fill="#000000" font-family="'Helvetica'" font-size="2.5731">100px</text><text transform="matrix(1.0074 0 0 1 -41 39)" display="inline" fill="#000000" font-family="'Helvetica-Bold'" font-size="5.1462">.SVG</text><rect x="-126.514" y="34.815" display="inline" fill="#000000" width="10.261" height="10.185"></rect><rect x="-126.477" y="31.766" display="inline" fill="#000000" width="0.522" height="2.337"></rect><rect x="-116.812" y="31.766" display="inline" fill="#000000" width="0.523" height="2.337"></rect><rect x="-127" y="32.337" display="inline" fill="#000000" width="11.233" height="0.572"></rect><g display="inline"><rect x="-83.805" y="33.844" fill="#000000" width="10.305" height="10.156"></rect><rect x="-76.809" y="28.707" fill="#000000" width="3.308" height="3.261"></rect></g><rect x="-178.5" y="22.5" display="inline" fill="#000000" stroke="#FFFFFF" stroke-miterlimit="10" width="30" height="30"></rect><rect x="-136.5" y="22.5" display="inline" fill="#000000" stroke="#FFFFFF" stroke-miterlimit="10" width="30" height="30"></rect><rect x="-93.5" y="22.5" display="inline" fill="#000000" stroke="#FFFFFF" stroke-miterlimit="10" width="30" height="30"></rect><rect x="-49.5" y="22.5" display="inline" fill="#000000" stroke="#FFFFFF" stroke-miterlimit="10" width="30" height="30"></rect></g><g display="none"><path display="inline" d="M15.752,77.931C15.544,72.33,32.122,18.659,70.911,5.175C54.316-3.122,33.366,0.405,22.788,8.079   C-8.387,40.505,9.06,72.776,15.752,77.931z"></path><path display="inline" d="M17.81,79.849c25.928,16.181,80.776-45.651,73.636-56.835C87.713,15.754,80.005,9.785,73.675,6.438   C66.036,3.03,24.24,40.853,17.81,79.849z"></path><path display="inline" d="M19.209,10.88c-3.369,1.382-35.513,31.422-8.452,69.798c0,0,3.643,3.712,5.037,4.073   c-0.077-2.955-0.18-3.755-0.205-4.917C13.006,78.635-11.462,46.271,19.209,10.88z"></path><path display="inline" d="M17.632,81.367c27.628,19.711,84.01-48.125,75.362-55.762c0.667,0.761,15.341,23.242,0.111,48.968   C76.483,102.65,32.344,98.832,17.969,86.254C17.071,83.782,17.352,83.221,17.632,81.367z"></path><path display="inline" d="M18.567,87.517l-0.037,0.979c35.715,26.734,67.892-2.636,69.811-7.13   C72.159,98.439,40.505,103.437,18.567,87.517z"></path></g><g display="none"><path display="inline" d="M58.453,85.914c2.112-6.338,16.901-24.295,26.407-27.464c4.226,10.563,9.507,29.577,6.338,32.746   S63.734,88.027,58.453,85.914z"></path><path display="inline" d="M85.917,58.45c2.112-1.056,5.281-3.169,9.507,1.057c2.112,2.112,4.226,29.576-2.112,30.633   C93.312,84.858,92.255,69.014,85.917,58.45z"></path><path display="inline" d="M73.627,36.165c-0.084,0.038-0.173,0.067-0.256,0.108c-0.635,0.312-1.234,0.69-1.726,1.13   c-0.24,0.222-0.468,0.449-0.62,0.702c-0.431,0.078-0.845,0.159-1.382,0.448c-0.334-0.473-0.387-1.105-0.366-1.67   c0.3-0.393,0.611-0.747,0.956-1.051c0.653-0.583,1.368-1.026,2.106-1.398c-0.899-1.178-1.881-2.401-2.926-3.65   c-0.257,0.091-0.513,0.183-0.758,0.291c-0.626,0.274-1.22,0.604-1.702,0.995c-0.236,0.197-0.458,0.397-0.603,0.625   c-0.418,0.044-0.824,0.092-1.361,0.36c-0.334-0.458-0.379-1.086-0.344-1.643c0.31-0.375,0.629-0.706,0.979-0.983   c0.691-0.557,1.434-0.957,2.186-1.289c0.05-0.022,0.101-0.037,0.15-0.058c-1.048-1.207-2.158-2.432-3.304-3.66   c-0.483,0.419-0.961,0.908-1.474,1.414l-0.845,0.813c-0.503,0.027-1.025,0.051-1.578-0.093c0.051-0.581,0.105-1.032,0.159-1.501   c0.272-0.214,0.518-0.471,0.78-0.724c0.469-0.461,0.955-0.957,1.503-1.441c-1.257-1.309-2.561-2.612-3.893-3.898   c-0.013,0.007-0.028,0.011-0.04,0.018c-0.558,0.295-1.04,0.673-1.401,1.124c-0.177,0.228-0.342,0.465-0.444,0.735   c-0.409,0.137-0.805,0.319-1.317,0.611c-0.359-0.438-0.524-0.97-0.618-1.509c0.212-0.407,0.442-0.807,0.732-1.16   c0.43-0.536,0.944-0.979,1.495-1.336c-1.3-1.216-2.623-2.404-3.958-3.556c-0.479,0.186-0.914,0.418-1.252,0.709   c-0.233,0.205-0.438,0.422-0.56,0.686c-0.42,0.112-0.83,0.295-1.338,0.667c-0.373-0.459-0.518-1.087-0.523-1.71   c0.287-0.475,0.64-0.906,1.047-1.247c0.276-0.235,0.569-0.424,0.867-0.595c-1.062-0.882-2.127-1.72-3.191-2.536   c-0.487,0.264-0.958,0.556-1.375,0.904c-0.287,0.245-0.567,0.496-0.786,0.786c-0.48,0.084-0.94,0.182-1.537,0.38   c-0.205-0.572-0.167-1.188-0.089-1.761c0.341-0.369,0.684-0.72,1.061-1.028c0.288-0.239,0.596-0.444,0.903-0.649   c-0.821-0.598-1.637-1.161-2.449-1.707c-0.492,0.185-0.963,0.396-1.361,0.664c-0.26,0.181-0.505,0.368-0.674,0.593   c-0.429,0.021-0.847,0.058-1.41,0.293c-0.289-0.498-0.283-1.134-0.194-1.7c0.348-0.363,0.709-0.682,1.096-0.938   c0.146-0.097,0.294-0.183,0.442-0.268c-2.911-1.799-5.716-3.195-8.277-3.995C20.338,9.333,14.529,13.118,2.469,33.099   c2.112,7.394,7.394,29.577,43.308,46.477c2.113-9.507,15.845-26.407,32.746-33.801C78.523,43.855,76.662,40.365,73.627,36.165z"></path><path display="inline" d="M89.086,94.365C7.75,80.633,1.413,32.043,1.413,32.043s-3.168,25.352,25.352,48.59   C56.341,103.871,95.16,95.39,89.086,94.365z"></path><path display="inline" d="M1.941,24.649C3.525,14.614,4.318,10.917,8.015,7.396c4.93-4.929,10.563-5.105,20.07-5.633   C14.441,5.107,5.374,16.814,1.941,24.649z"></path><path display="inline" d="M36.271,2.466c2.397,1.202,4.647,2.429,6.786,3.67c0.441-0.207,0.887-0.376,1.335-0.519   c0.815-0.257,1.637-0.426,2.463-0.541c0.414-0.057,0.828-0.099,1.247-0.125c0.437,0.295,0.858,0.597,1.239,1.031l-1.108,1.078   c-0.363,0.022-0.727,0.059-1.088,0.108c-0.59,0.082-1.17,0.207-1.733,0.363c0.818,0.5,1.622,1,2.403,1.503   c0.235-0.127,0.465-0.266,0.709-0.376c0.875-0.389,1.804-0.672,2.787-0.794c0.492-0.059,0.997-0.077,1.51-0.034   c0.483,0.361,0.913,0.776,1.175,1.324c-0.551,0.25-0.976,0.491-1.352,0.781c-0.348-0.029-0.712-0.018-1.077,0.026   c-0.563,0.069-1.129,0.235-1.681,0.442c1.192,0.807,2.345,1.616,3.448,2.426c0.146-0.049,0.291-0.101,0.436-0.143   c0.903-0.26,1.8-0.392,2.685-0.472c0.441-0.039,0.882-0.064,1.318-0.079c0.447,0.306,0.878,0.613,1.299,1.037   c-0.421,0.423-0.833,0.74-1.228,1.075c-0.404,0.014-0.806,0.037-1.203,0.072c-0.386,0.034-0.768,0.082-1.141,0.144   c1.372,1.065,2.686,2.128,3.91,3.186c0.405-0.146,0.816-0.267,1.228-0.361c0.4-0.091,0.803-0.16,1.206-0.211   c0.441,0.268,0.857,0.55,1.245,0.96l-0.984,1.136c-0.276,0.035-0.549,0.086-0.818,0.143c1.263,1.151,2.446,2.293,3.547,3.417   c0.247-0.131,0.501-0.251,0.77-0.348c0.429-0.155,0.878-0.259,1.326-0.309c0.483,0.268,0.9,0.584,1.236,1.036   c-0.406,0.392-0.739,0.71-0.996,1.062c-0.271,0.031-0.531,0.096-0.786,0.183c1.287,1.389,2.467,2.75,3.526,4.063   c0.07-0.019,0.14-0.043,0.211-0.062c0.393-0.098,0.79-0.181,1.193-0.246c0.454,0.251,0.896,0.516,1.292,0.921l-0.955,1.164   c-0.101,0.016-0.202,0.043-0.303,0.062c0.93,1.231,1.765,2.417,2.509,3.542c0.337-0.114,0.677-0.223,1.026-0.307   c0.424-0.101,0.858-0.179,1.306-0.224c0.477,0.275,0.936,0.583,1.282,1.049c-0.437,0.379-0.77,0.703-1.077,1.054   c-0.335,0.033-0.679,0.094-1.02,0.175c-0.113,0.027-0.224,0.069-0.336,0.1c3.22,5.25,4.391,8.894,4.708,9.527   c3.984-1.105,7.917-1.645,11.19,0.891C74.847,7.815,39.969,1.607,36.271,2.466z"></path></g><g display="none"><path display="inline" d="M29.941,92.364c-4.306-2.553-8.282-5.848-11.381-9.988c-3.084-4.134-5.074-9.231-5.468-14.485   c-0.389-5.265,0.691-10.49,2.485-15.296l0.05-0.135l0.092-0.158c2.058-3.553,4.64-6.912,7.891-9.638   c1.626-1.354,3.403-2.556,5.308-3.517c1.909-0.95,3.928-1.669,5.984-2.165c4.122-0.985,8.347-1.079,12.417-0.662   c4.077,0.455,8.021,1.391,11.856,2.528c7.674,2.288,14.887,5.536,22.181,8.167c1.828,0.642,3.669,1.212,5.519,1.651   c1.847,0.42,3.74,0.701,5.536,0.441c0.893-0.134,1.756-0.4,2.516-0.873c0.761-0.469,1.398-1.146,1.896-1.937   c0.785-1.259,1.02-3.822,0.903-4.239C94.102,18.803,74.6,0.987,50.329,0.987c-26.834,0-48.587,21.753-48.587,48.587   c0,23.497,16.68,43.097,38.845,47.608c-1.338-0.43-2.661-0.915-3.96-1.461C34.33,94.77,32.089,93.658,29.941,92.364z"></path><path display="inline" d="M98.456,42.963c-0.119,1.259-0.391,2.515-0.945,3.711c-0.444,0.928-1.089,1.804-1.935,2.472   c-0.846,0.666-1.852,1.127-2.883,1.374c-2.076,0.499-4.169,0.367-6.175,0.109c-2.015-0.264-3.968-0.742-5.893-1.257   c-3.848-1.041-7.59-2.292-11.309-3.521c-3.719-1.226-7.441-2.363-11.164-3.359c-3.725-0.977-7.485-1.733-11.232-2.029   c-3.737-0.343-7.479-0.199-10.998,0.684c-3.513,0.892-6.775,2.523-9.578,4.816c-2.771,2.27-5.066,5.16-6.966,8.327   c-1.739,4.293-2.798,8.851-2.607,13.388c0.118,4.599,1.601,9.118,4.168,13.049c2.525,3.972,6.058,7.332,9.947,10.208   c3.566,2.57,7.565,4.241,11.662,6.024c2.457,0.896,5.087,1.202,7.78,1.202c26.834,0,48.587-21.753,48.587-48.587   C98.916,47.33,98.75,45.126,98.456,42.963z"></path></g><g><g><path d="M99,50c0,27.062-21.938,49-49,49C22.938,99,1,77.062,1,50C1,22.938,22.938,1,50,1C77.062,1,99,22.938,99,50z     M36.662,96.247l1.173-0.084c0.523-0.03,1.007-0.014,1.022-0.014c0.566,0.048,1.005-0.407,1.024-0.953    c0.02-0.547-0.407-1.006-0.953-1.025c0,0.001-0.581-0.02-1.224,0.017l-1.183,0.085c-0.545,0.038-0.957,0.512-0.917,1.058    c0.037,0.521,0.471,0.92,0.986,0.92C36.615,96.25,36.639,96.249,36.662,96.247z M31.7,92.859l1.368-0.189    c0.644-0.092,1.242-0.148,1.25-0.149c0.544-0.051,0.944-0.533,0.893-1.078c-0.051-0.544-0.526-0.949-1.078-0.893    c0,0-0.646,0.061-1.34,0.159l-1.364,0.189c-0.542,0.075-0.919,0.575-0.844,1.116c0.069,0.496,0.493,0.854,0.979,0.854    C31.608,92.869,31.654,92.866,31.7,92.859z M28.042,92.118c0-0.044-0.003-0.068-0.01-0.111c-0.009-0.071-0.079-0.56-0.094-1.132    c-0.027-0.62-0.013-1.177-0.013-1.185c0.01-0.459-0.354-0.69-0.812-0.69c-0.007,0-0.013,0-0.019,0    c-0.451,0-0.821,0.201-0.831,0.654c0,0-0.015,0.535,0.013,1.2c0.035,1.25,0.057,2.076,0.936,2.076    C27.669,92.931,28.042,92.578,28.042,92.118z M27.519,88.674l2.733-0.407c0.485-0.073,0.819-0.525,0.747-1.011    s-0.531-0.816-1.009-0.747l-2.732,0.407c-0.486,0.073-0.82,0.525-0.748,1.011c0.065,0.44,0.445,0.757,0.877,0.757    C27.43,88.684,27.474,88.68,27.519,88.674z M24.209,88.911c0.001-0.009,0.089-0.753,0.225-1.495    c0.146-0.761,0.35-1.525,0.353-1.535c0.129-0.488-0.196-0.98-0.727-1.1c-0.532-0.121-1.067,0.179-1.197,0.667    c0,0-0.22,0.828-0.379,1.657c-0.148,0.808-0.243,1.61-0.243,1.61c-0.059,0.5,0.334,0.948,0.878,1.002    c0.036,0.004,0.072,0.006,0.107,0.006C23.725,89.724,24.154,89.378,24.209,88.911z M23.015,84.483l3.432-0.397    c0.543-0.062,0.933-0.554,0.87-1.098c-0.063-0.543-0.559-0.939-1.097-0.869l-3.432,0.397c-0.543,0.062-0.933,0.554-0.87,1.098    c0.059,0.504,0.486,0.876,0.982,0.876C22.938,84.49,22.976,84.488,23.015,84.483z M19.541,80l1.938-0.267    c0.956-0.023,1.892-0.319,1.892-0.319c0.545-0.038,0.956-0.504,0.917-1.049c-0.039-0.547-0.515-0.951-1.057-0.903    c0,0-0.891,0.091-1.796,0.114l-1.933,0.095c-0.546,0.011-0.981,0.579-0.971,1.125C18.542,79.337,18.984,80,19.521,80    C19.528,80,19.535,80,19.541,80z M14.433,78.934c0.005-0.008,0.487-0.818,1.013-1.581c0.519-0.764,1.094-1.499,1.1-1.506    c0.311-0.397,0.239-0.97-0.162-1.277c-0.4-0.31-0.978-0.237-1.289,0.16c-0.025,0.031-0.619,0.79-1.17,1.601    c-0.558,0.811-1.055,1.646-1.076,1.681c-0.257,0.433-0.112,0.99,0.325,1.245c0.146,0.087,0.307,0.127,0.465,0.127    C13.956,79.383,14.262,79.222,14.433,78.934z M19.584,85.46c0.001-0.009,0.142-0.934,0.339-1.829    c0.19-0.895,0.442-1.782,0.445-1.791c0.136-0.479-0.137-0.987-0.611-1.133c-0.474-0.146-0.969,0.124-1.104,0.604    c-0.012,0.038-0.271,0.954-0.473,1.903c-0.209,0.952-0.354,1.905-0.359,1.945c-0.075,0.493,0.259,0.962,0.746,1.045    c0.164,0.029,0.323,0.01,0.466-0.046C19.317,86.047,19.535,85.789,19.584,85.46z M22.083,73.813    c0.025-0.546-0.397-1.249-0.943-1.274c-0.008,0-0.966-0.036-1.962-0.126c-0.968-0.096-1.988-0.23-1.995-0.231    c-0.544-0.072-1.043,0.327-1.123,0.867c-0.079,0.541,0.295,1.105,0.836,1.184c0,0,1.07,0.28,2.095,0.382    C20.045,74.709,21.049,75,21.049,75c0.016,0,0.031,0,0.046,0C21.622,75,22.06,74.345,22.083,73.813z M11.667,72.62l0.472-0.49    c0.277-0.283,0.643-0.649,1.061-1.02c0.801-0.725,1.657-1.392,1.666-1.398c0.431-0.335,0.509-0.957,0.174-1.389    s-0.958-0.51-1.389-0.174c-0.038,0.028-0.921,0.717-1.771,1.485c-0.449,0.398-0.851,0.8-1.161,1.116l-0.479,0.498    c-0.379,0.394-0.366,1.021,0.028,1.399c0.192,0.185,0.439,0.276,0.686,0.276C11.212,72.925,11.472,72.822,11.667,72.62z     M20.833,68.734c0.114-0.534-0.227-1.061-0.762-1.174c0,0-0.984-0.21-2.011-0.494c-0.511-0.14-1.033-0.295-1.401-0.411    l-0.649-0.222c-0.517-0.177-1.08,0.102-1.256,0.619s0.102,1.08,0.619,1.256l0.667,0.227c0.411,0.131,0.96,0.294,1.496,0.44    c1.083,0.299,2.123,0.521,2.123,0.521c0.07,0.016,0.139,0.022,0.208,0.022C20.323,69.519,20.734,69.2,20.833,68.734z     M10.205,65.678c0.01-0.006,0.987-0.618,1.971-1.136c0.499-0.262,0.981-0.509,1.368-0.681l0.684-0.298    c0.501-0.219,0.729-0.803,0.511-1.304c-0.22-0.502-0.805-0.731-1.304-0.511l-0.687,0.3c-0.428,0.189-0.953,0.456-1.493,0.741    c-1.054,0.553-2.061,1.185-2.104,1.212c-0.463,0.291-0.602,0.901-0.312,1.364c0.188,0.3,0.51,0.464,0.839,0.464    C9.859,65.83,10.041,65.781,10.205,65.678z M20.624,63.972c0.221-0.5-0.005-1.085-0.505-1.306L19.5,62.393    c-0.36-0.17-0.843-0.406-1.333-0.663c-0.957-0.496-1.944-1.091-1.954-1.097c-0.467-0.282-1.076-0.131-1.359,0.336    c-0.282,0.469-0.132,1.077,0.336,1.359c0.042,0.025,1.05,0.633,2.062,1.157c0.513,0.269,1.022,0.519,1.425,0.708l0.641,0.283    c0.13,0.058,0.266,0.085,0.4,0.085C20.097,64.562,20.46,64.342,20.624,63.972z M10.432,58.521l0.714-0.223    c0.416-0.126,1.005-0.271,1.579-0.405c1.151-0.27,2.315-0.462,2.327-0.464c0.54-0.088,0.905-0.597,0.817-1.137    c-0.088-0.539-0.595-0.915-1.137-0.816c-0.05,0.008-1.241,0.203-2.459,0.489c-0.618,0.145-1.253,0.303-1.708,0.44l-0.722,0.225    c-0.522,0.163-0.813,0.718-0.651,1.239c0.132,0.425,0.523,0.696,0.945,0.696C10.234,58.566,10.333,58.552,10.432,58.521z     M21.485,59.321c0.32-0.443,0.22-1.062-0.223-1.382c-0.009-0.007-0.913-0.66-1.804-1.393c-0.449-0.367-0.899-0.751-1.214-1.031    L17.7,55.011c-0.399-0.371-1.026-0.349-1.399,0.052c-0.372,0.401-0.349,1.027,0.052,1.399l0.56,0.52    c0.348,0.309,0.821,0.714,1.291,1.097c0.935,0.77,1.861,1.438,1.899,1.467c0.175,0.127,0.378,0.188,0.579,0.188    C20.989,59.732,21.292,59.59,21.485,59.321z M12.273,51.68c0.013,0,1.257-0.085,2.468-0.098c1.205-0.023,2.413,0.027,2.425,0.029    c0.553,0.01,1.007-0.402,1.03-0.948c0.022-0.546-0.402-1.007-0.948-1.03c-0.051-0.002-1.274-0.055-2.535-0.031    c-1.264,0.014-2.522,0.099-2.576,0.103c-0.545,0.038-0.957,0.51-0.92,1.055c0.036,0.522,0.471,0.923,0.987,0.923    C12.227,51.683,12.25,51.682,12.273,51.68z M23.307,54.812c0.399-0.374,0.419-1,0.045-1.398c-0.006-0.007-0.804-0.858-1.583-1.784    c-0.76-0.893-1.466-1.849-1.474-1.858c-0.167-0.227-0.423-0.372-0.703-0.399c-0.283-0.026-0.559,0.067-0.766,0.257    c-0.762,0.703-0.296,1.25,1.432,3.279c0.804,0.955,1.616,1.822,1.65,1.859c0.195,0.207,0.458,0.312,0.722,0.312    C22.873,55.08,23.116,54.991,23.307,54.812z M21.628,45.608c0.144-0.528-0.167-1.072-0.695-1.215l-0.785-0.213    c-0.471-0.119-1.106-0.267-1.751-0.395c-0.646-0.13-1.304-0.241-1.815-0.317l-0.805-0.11c-0.539-0.073-1.041,0.306-1.115,0.847    c-0.074,0.542,0.306,1.041,0.847,1.115l0.793,0.108c0.471,0.07,1.093,0.175,1.707,0.299c0.611,0.121,1.21,0.261,1.638,0.369    l0.766,0.208c0.087,0.024,0.175,0.035,0.261,0.035C21.109,46.338,21.509,46.048,21.628,45.608z M25.827,50.84    c0.459-0.296,0.591-0.909,0.294-1.369c-0.006-0.01-0.648-1.007-1.184-2.037c-0.547-1.025-1.035-2.158-1.04-2.169    c-0.216-0.502-0.797-0.735-1.3-0.519c-0.502,0.216-0.735,0.798-0.519,1.3c0.021,0.049,0.525,1.219,1.107,2.31    c0.572,1.103,1.244,2.145,1.272,2.189c0.189,0.293,0.507,0.453,0.833,0.453C25.475,50.999,25.661,50.947,25.827,50.84z     M26.281,41.67c0.293-0.461,0.157-1.073-0.304-1.367c-0.045-0.028-1.119-0.71-2.307-1.322c-0.724-0.381-1.373-0.671-1.704-0.813    l-0.757-0.319c-0.503-0.213-1.084,0.024-1.297,0.527c-0.212,0.504,0.023,1.084,0.527,1.297l0.751,0.316    c0.504,0.217,1.071,0.488,1.564,0.748c1.113,0.574,2.149,1.23,2.159,1.237c0.165,0.104,0.349,0.155,0.53,0.155    C25.771,42.129,26.092,41.967,26.281,41.67z M28.907,47.904c0.521-0.165,0.809-0.722,0.644-1.243    c-0.003-0.011-0.357-1.129-0.598-2.29c-0.239-1.133-0.382-2.357-0.383-2.369c-0.063-0.543-0.56-0.931-1.097-0.87    c-0.543,0.062-0.933,0.553-0.87,1.097c0.006,0.053,0.154,1.325,0.412,2.549c0.261,1.256,0.633,2.434,0.649,2.483    c0.134,0.421,0.523,0.69,0.943,0.69C28.706,47.951,28.807,47.936,28.907,47.904z M31.876,39.231    c0.411-0.36,0.453-0.986,0.092-1.397c-0.035-0.04-0.873-0.994-1.826-1.923c-0.956-0.946-1.992-1.78-2.035-1.815    c-0.427-0.342-1.049-0.274-1.392,0.152c-0.342,0.426-0.274,1.049,0.152,1.392c0.01,0.008,1.002,0.807,1.888,1.684    c0.901,0.878,1.716,1.806,1.724,1.815c0.196,0.224,0.47,0.337,0.745,0.337C31.456,39.477,31.689,39.396,31.876,39.231z M32.627,46    c0.547,0,0.987-0.472,0.983-1.018c0-0.012-0.007-1.222,0.088-2.415c0.097-1.168,0.293-2.386,0.295-2.398    c0.045-0.28-0.031-0.564-0.21-0.784c-0.179-0.219-0.443-0.35-0.726-0.362c-1.051-0.05-1.109,0.688-1.333,3.395    c-0.102,1.284-0.094,2.526-0.094,2.578C31.634,45.54,32.077,46,32.62,46C32.623,46,32.625,46,32.627,46z M37.905,38.255    c0.48-0.262,0.658-0.863,0.396-1.343c-0.025-0.046-0.624-1.145-1.314-2.263c-0.686-1.102-1.446-2.164-1.478-2.208    c-0.318-0.445-0.938-0.545-1.381-0.228c-0.444,0.319-0.546,0.937-0.228,1.381c0.007,0.011,0.754,1.053,1.404,2.098    c0.66,1.068,1.252,2.156,1.258,2.167c0.18,0.33,0.52,0.517,0.871,0.517C37.593,38.375,37.755,38.336,37.905,38.255z     M38.289,44.199c0.003-0.012,0.304-1.175,0.677-2.326c0.365-1.14,0.813-2.27,0.818-2.281c0.202-0.508-0.046-1.084-0.554-1.286    c-0.508-0.203-1.084,0.047-1.286,0.554c-0.019,0.049-0.478,1.203-0.863,2.406c-0.391,1.208-0.696,2.389-0.709,2.439    c-0.137,0.53,0.182,1.069,0.711,1.206c0.083,0.021,0.166,0.032,0.248,0.032C37.771,44.942,38.174,44.646,38.289,44.199z     M43.845,38.428c0.475-0.082,0.823-0.493,0.823-0.975c0-0.354-0.816-2.33-0.978-2.716c-0.483-1.184-1.025-2.376-1.025-2.376    c-0.226-0.497-0.812-0.715-1.311-0.492c-0.498,0.226-0.718,0.813-0.492,1.311c0.002,0.005,0.527,1.159,0.998,2.312    c0.47,1.128,0.879,2.278,0.883,2.289c0.142,0.401,0.52,0.661,0.934,0.661C43.732,38.442,43.789,38.437,43.845,38.428z     M43.451,44.199c0.069-0.147,0.546-1.149,1.068-2.143c0.513-0.987,1.067-1.951,1.155-2.103c0.176-0.306,0.188-0.705,0.011-1.01    l-0.857,0.496l-0.003,0.001l-0.867-0.474c-0.091,0.158-0.665,1.156-1.194,2.173c-1.209,2.301-1.209,2.451-1.209,2.658    c0,0.547,0.443,0.99,0.99,0.99C42.949,44.787,43.296,44.545,43.451,44.199z M50.08,39.265c0.527-0.145,0.838-0.689,0.694-1.216    l-0.646-2.362c-0.338-1.209-0.723-2.413-0.723-2.413c-0.167-0.521-0.723-0.809-1.244-0.642c-0.521,0.167-0.808,0.724-0.642,1.244    c0.001,0.006,0.375,1.172,0.7,2.338l0.645,2.357c0.121,0.44,0.52,0.729,0.955,0.729C49.905,39.3,49.993,39.289,50.08,39.265z     M48.877,44.853c0.003-0.004,0.646-1.009,1.32-1.987c0.607-0.879,1.238-1.742,1.358-1.907c0.22-0.301,0.272-0.728,0.104-1.061    l-0.885,0.45l-0.817-0.557c-0.123,0.168-0.768,1.05-1.389,1.95c-0.696,1.009-1.358,2.045-1.358,2.045    c-0.294,0.46-0.16,1.073,0.301,1.367c0.165,0.105,0.35,0.156,0.532,0.156C48.369,45.31,48.688,45.148,48.877,44.853z     M56.032,40.665c0.535-0.112,0.878-0.637,0.766-1.172l-1.008-4.668c-0.119-0.534-0.649-0.873-1.182-0.751    c-0.534,0.119-0.87,0.647-0.752,1.181l1.004,4.645c0.098,0.467,0.509,0.787,0.968,0.787    C55.896,40.686,55.964,40.679,56.032,40.665z M54.464,45.921c0.003-0.004,0.724-0.918,1.455-1.795l1.508-1.775    c0.354-0.417,0.303-1.042-0.114-1.395c-0.414-0.354-1.04-0.303-1.396,0.114l-1.513,1.782c-0.756,0.906-1.495,1.844-1.495,1.844    c-0.339,0.43-0.265,1.052,0.165,1.391c0.182,0.143,0.397,0.212,0.611,0.212C53.979,46.299,54.269,46.169,54.464,45.921z     M61.904,42.398c0.538-0.098,0.895-0.614,0.796-1.152l-0.817-4.483c-0.098-0.538-0.608-0.893-1.151-0.796    c-0.538,0.098-0.895,0.614-0.796,1.152l0.817,4.483c0.087,0.478,0.503,0.812,0.973,0.812    C61.784,42.415,61.844,42.409,61.904,42.398z M60.139,47.291l3.082-3.222c0.382-0.392,0.374-1.018-0.018-1.4    c-0.392-0.383-1.019-0.373-1.4,0.017l-3.107,3.25c-0.374,0.398-0.354,1.025,0.044,1.399c0.191,0.179,0.435,0.268,0.678,0.268    C59.681,47.604,59.944,47.499,60.139,47.291z M67.714,44.336c0.538-0.096,0.896-0.61,0.801-1.148l-0.757-4.242    c-0.097-0.538-0.612-0.894-1.148-0.801c-0.538,0.096-0.896,0.61-0.801,1.148l0.757,4.242c0.086,0.479,0.503,0.816,0.974,0.816    C67.597,44.352,67.655,44.347,67.714,44.336z M73.582,45.911c0.502-0.089,0.835-0.568,0.746-1.07l-0.705-3.951    c-0.09-0.501-0.57-0.833-1.069-0.746c-0.502,0.089-0.835,0.568-0.746,1.07l0.705,3.951c0.08,0.446,0.469,0.76,0.907,0.76    C73.473,45.926,73.527,45.921,73.582,45.911z M65.9,48.819l3.087-2.873c0.403-0.369,0.432-0.995,0.062-1.398    c-0.37-0.405-0.998-0.431-1.398-0.062l-3.112,2.896c-0.397,0.376-0.414,1.002-0.038,1.399c0.194,0.206,0.456,0.31,0.719,0.31    C65.464,49.091,65.709,49,65.9,48.819z M71.9,50.819l3.087-2.873c0.403-0.369,0.432-0.995,0.062-1.398    c-0.37-0.405-0.998-0.431-1.398-0.062l-3.112,2.896c-0.397,0.376-0.414,1.002-0.038,1.399c0.194,0.206,0.456,0.31,0.719,0.31    C71.464,51.091,71.709,51,71.9,50.819z M79.355,48.338c0.522-0.162,0.813-0.717,0.651-1.239c-0.002-0.006-0.259-0.833-0.491-1.694    l-0.468-1.802c-0.137-0.529-0.677-0.847-1.206-0.71c-0.529,0.137-0.848,0.677-0.71,1.207l0.47,1.813    c0.245,0.909,0.515,1.775,0.515,1.775c0.132,0.424,0.522,0.696,0.945,0.696C79.158,48.383,79.258,48.369,79.355,48.338z     M77.73,52.923l2.849-2.216c0.435-0.333,0.517-0.954,0.185-1.388c-0.332-0.435-0.952-0.516-1.388-0.185l-2.872,2.233    c-0.43,0.339-0.503,0.961-0.164,1.391c0.195,0.248,0.485,0.377,0.778,0.377C77.333,53.136,77.549,53.066,77.73,52.923z     M83.924,53.162l2.619-1.967c0.437-0.329,0.525-0.949,0.197-1.386c-0.33-0.438-0.948-0.525-1.387-0.197l-2.619,1.966    c-0.437,0.329-0.525,0.949-0.197,1.387c0.195,0.259,0.492,0.396,0.793,0.396C83.537,53.36,83.745,53.296,83.924,53.162z     M91.777,49.177l-0.005-0.415l-0.29-0.29c-0.075-0.076-0.472-0.477-0.831-0.958c-0.353-0.449-0.68-0.981-0.741-1.084    c-0.23-0.378-0.687-0.563-1.116-0.445c-0.298,0.083-0.539,0.304-0.652,0.592c-0.114,0.288-0.085,0.615,0.076,0.88    c0.102,0.167,0.465,0.754,0.862,1.261c0.414,0.554,0.869,1.021,1.003,1.154c0.18,0.181,0.429,0.293,0.704,0.293    C91.334,50.167,91.777,49.724,91.777,49.177z M85.777,48.177l-0.005-0.415l-0.29-0.29c-0.075-0.076-0.472-0.477-0.831-0.958    c-0.353-0.449-0.68-0.981-0.741-1.084c-0.23-0.378-0.687-0.563-1.116-0.445c-0.298,0.083-0.539,0.304-0.652,0.592    c-0.114,0.288-0.085,0.615,0.076,0.88c0.102,0.167,0.465,0.754,0.862,1.261c0.414,0.554,0.869,1.021,1.003,1.154    c0.18,0.181,0.429,0.293,0.704,0.293C85.334,49.167,85.777,48.724,85.777,48.177z M90.552,53.62l1.17-1    c0.291-0.246,0.574-0.515,0.777-0.706l0.314-0.3c0.396-0.377,0.411-1.004,0.034-1.4c-0.378-0.396-1.005-0.411-1.399-0.034    l-0.312,0.297c-0.181,0.172-0.435,0.412-0.702,0.64l-1.146,0.979c-0.421,0.349-0.479,0.973-0.13,1.394    c0.195,0.236,0.478,0.358,0.763,0.358C90.143,53.849,90.367,53.773,90.552,53.62z M97.795,51.836l0.2-0.533    c0.08-0.292,0.172-0.665,0.258-1.057c0.044-0.265,0.067-0.525,0.086-0.744l0.018-0.189c0.039-0.314,0.021-0.545,0.014-0.609    c-0.057-0.536-0.529-0.922-1.07-0.871c-0.537,0.047-0.938,0.526-0.9,1.064c0.002,0.023,0.003,0.085-0.01,0.185l-0.023,0.25    c-0.015,0.172-0.031,0.377-0.057,0.535c-0.064,0.292-0.143,0.609-0.212,0.867l-0.15,0.392c-0.196,0.51,0.059,1.082,0.568,1.278    c0.117,0.045,0.237,0.066,0.355,0.066C97.269,52.472,97.644,52.23,97.795,51.836z M92.979,47.289    c0.02,0.016,0.48,0.391,1.063,0.723c0.53,0.263,1.085,0.443,1.108,0.451c0.521,0.168,1.078-0.119,1.245-0.639    c0.169-0.519-0.117-1.078-0.638-1.246c-0.004-0.001-0.441-0.145-0.782-0.312c-0.387-0.222-0.744-0.51-0.748-0.513    c-0.424-0.344-1.048-0.28-1.392,0.145c-0.133,0.163-0.204,0.354-0.22,0.548C92.593,46.758,92.717,47.077,92.979,47.289z"></path></g></g><g display="none"><path display="inline" d="M5,37 M94.875,61c0,12-20.272,22.125-45.125,22.125c-24.853,0-45-10.125-45-22.125l0.125-24   c0-11,20.084-18.25,44.938-18.25C74.665,18.75,94.75,26,94.75,37L94.875,61z M6.732,36.217c0.453,0.495,1.224,1.099,2.241,1.86   c0.533,0.334,1.123,0.705,1.765,1.108c0.66,0.372,1.392,0.741,2.167,1.154c0.797,0.36,1.646,0.753,2.552,1.136   c0.92,0.342,1.881,0.736,2.908,1.06c2.048,0.673,4.293,1.337,6.708,1.851c2.406,0.556,4.97,1.013,7.634,1.393   c2.667,0.342,5.429,0.689,8.249,0.847c2.817,0.201,5.685,0.274,8.553,0.31c2.868-0.028,5.737-0.09,8.554-0.287   c2.82-0.149,5.583-0.492,8.251-0.826c2.664-0.385,5.23-0.826,7.637-1.388c2.414-0.513,4.659-1.182,6.708-1.854   c1.023-0.338,1.987-0.722,2.907-1.065c0.899-0.404,1.756-0.772,2.545-1.153c0.774-0.417,1.512-0.776,2.163-1.164   c0.642-0.407,1.237-0.768,1.759-1.116c1.011-0.754,1.779-1.368,2.235-1.866C92.745,35.75,93,35.5,93,35.5s-0.279,0.221-0.804,0.636   c-0.271,0.194-0.561,0.488-0.98,0.731c-0.405,0.259-0.871,0.556-1.394,0.888c-0.54,0.302-1.153,0.609-1.81,0.957   c-0.667,0.329-1.421,0.623-2.205,0.97c-0.802,0.311-1.67,0.605-2.576,0.93c-0.929,0.266-1.885,0.601-2.909,0.871   c-2.048,0.539-4.279,1.068-6.671,1.489c-2.384,0.456-4.929,0.772-7.557,1.104c-2.636,0.279-5.366,0.5-8.146,0.646   c-2.778,0.172-5.609,0.206-8.437,0.216c-5.658,0.006-11.313-0.331-16.583-0.901c-2.629-0.327-5.172-0.655-7.557-1.107   c-0.597-0.111-1.185-0.221-1.765-0.329c-0.575-0.127-1.142-0.252-1.699-0.375c-1.122-0.222-2.182-0.521-3.208-0.783   c-1.029-0.255-1.98-0.603-2.912-0.865c-0.914-0.305-1.772-0.623-2.583-0.915c-0.786-0.344-1.533-0.648-2.209-0.962   c-0.66-0.345-1.267-0.663-1.814-0.949c-1.027-0.666-1.879-1.16-2.377-1.613C6.28,35.721,6,35.5,6,35.5S6.255,35.75,6.732,36.217z    M5.75,40.75l1.5-1.125 M7.55,40.025l-0.6-0.8l-1.5,1.125l0.6,0.8L7.55,40.025z M5.938,43.664l3.25-2.453 M9.489,41.61   l-0.603-0.798l-3.25,2.453l0.603,0.798L9.489,41.61z M5.875,46.548l5.259-4.259 M11.448,42.678L10.819,41.9L5.561,46.16   l0.629,0.777L11.448,42.678z M5.542,59.049L19.235,45.5 M19.587,45.855l-0.703-0.711L5.19,58.693l0.703,0.711L19.587,45.855z    M5.542,63.049l16.399-16.424 M22.295,46.979l-0.708-0.707L5.188,62.695l0.708,0.707L22.295,46.979z M7.875,66.758l18.713-18.883    M26.943,48.227l-0.71-0.704L7.52,66.406l0.71,0.703L26.943,48.227z M10.375,70.109L31.75,48.875 M32.103,49.229l-0.705-0.709   L10.022,69.755l0.705,0.709L32.103,49.229z M14.706,73.062L37.757,49.57 M38.114,49.92l-0.714-0.7L14.349,72.712l0.714,0.701   L38.114,49.92z M19.125,75.45l23.208-25.783 M42.705,50.001l-0.743-0.669L18.753,75.115l0.743,0.67L42.705,50.001z M24.412,77.625   l24.511-27.542 M49.296,50.416l-0.747-0.665L24.038,77.293l0.747,0.664L49.296,50.416z M32,78.375l23.667-28.042 M56.049,50.656   l-0.764-0.645L31.618,78.053l0.765,0.645L56.049,50.656z M38.75,79.5l23.375-29.125 M62.515,50.688l-0.779-0.626L38.36,79.188   l0.78,0.625L62.515,50.688z M45.125,79.875L67.25,49.75 M67.653,50.046l-0.807-0.592L44.722,79.579l0.806,0.592L67.653,50.046z    M51.5,80.5L76,47.75 M76.4,48.049L75.6,47.451L51.1,80.2l0.801,0.6L76.4,48.049z M58.125,79.875l26-35.125 M84.527,45.047   l-0.805-0.595l-26,35.125l0.805,0.596L84.527,45.047z M64.5,79.875l27.75-39.153 M92.658,41.011l-0.816-0.578l-27.75,39.153   l0.816,0.578L92.658,41.011z M74.125,76.625l18.75-30.25 M93.3,46.638l-0.85-0.526L73.7,76.361l0.85,0.527L93.3,46.638z M82.125,73   l10.75-20 M93.315,53.236l-0.881-0.473l-10.75,20l0.881,0.473L93.315,53.236z M89.125,68.875l4.125-9.75 M93.711,59.319   l-0.922-0.389l-4.125,9.75l0.922,0.389L93.711,59.319z M5.792,50.409l7.443-6.909 M13.576,43.867l-0.681-0.733l-7.443,6.909   l0.681,0.733L13.576,43.867z M5.875,54.507L16.235,44.5 M16.583,44.86l-0.694-0.72L5.528,54.147l0.694,0.719L16.583,44.86z"></path></g></svg>