<svg xmlns:dc="http://purl.org/dc/elements/1.1/" xmlns:cc="http://creativecommons.org/ns#" xmlns:rdf="http://www.w3.org/1999/02/22-rdf-syntax-ns#" xmlns:svg="http://www.w3.org/2000/svg" xmlns="http://www.w3.org/2000/svg" xmlns:sodipodi="http://sodipodi.sourceforge.net/DTD/sodipodi-0.dtd" xmlns:inkscape="http://www.inkscape.org/namespaces/inkscape" viewBox="0 0 100 100" version="1.1" x="0px" y="0px"><g transform="translate(0,-952.36216)"><path style="" d="m 89.041389,1042.4966 c -0.06332,-0.7473 -0.682857,-1.2141 -1.837488,-1.1482 -0.484457,0.028 -1.019434,-0.05 -1.188797,-0.1729 -1.279749,-0.9279 -14.18222,-15.7842 -18.534294,-21.3408 -0.953351,-1.2173 -2.450914,-3.0827 -3.327696,-4.1454 -5.320259,-6.4482 -9.161334,-11.6883 -13.150111,-17.93901 -2.961216,-4.59844 -6.086974,-9.04057 -9.219334,-13.19119 -4.658134,-6.47786 -9.594551,-12.8225 -14.73116,-18.919 -2.776166,-3.11624 -6.129347,-8.43072 -10.324258,-8.27458 -3.376518,0.19261 -5.95759,3.08604 -5.764919,6.46251 0.595937,3.78624 4.123028,7.21552 6.437601,9.94555 8.71426,10.23805 18.86268,20.38473 27.785759,28.54062 6.963269,6.3499 9.220657,8.705 20.570094,21.4586 4.235834,4.76 12.243965,14.3887 15.808861,19.0082 1.027323,1.3312 1.156818,1.5887 1.018711,2.0254 -0.0871,0.2752 -0.139449,0.827 -0.116682,1.2262 0.1161,2.035 2.654625,1.6825 5.073455,-0.7045 1.070678,-1.0566 1.563566,-2.0843 1.500258,-2.8315 z" fill="#000000"></path></g></svg>